<svg width="165" height="44" viewBox="0 0 165 44" fill="none" xmlns="http://www.w3.org/2000/svg">
<g clip-path="url(#clip0_92_649)">
<path d="M19.998 20.1568V43.2502L6.17642 35.2694C2.35415 33.0624 -0.000427246 28.9839 -0.000427246 24.5702V8.61084L19.998 20.1568Z" fill="#2964B8"/>
<path d="M12.317 1.49822C15.7307 -0.472875 19.998 1.99071 19.998 5.93257V20.1565L-0.000427246 8.61051L12.317 1.49822Z" fill="#2A82FF"/>
<path d="M33.8196 12.177C36.5651 10.592 39.9969 12.5734 39.9969 15.7436V31.7028L19.9971 43.2502V20.1568L33.8196 12.177Z" fill="#13EAC3"/>
</g>
<path d="M64.2574 38.7363C62.0228 38.7363 60.0175 38.3926 58.2413 37.705C56.4651 37.0175 54.9611 36.0148 53.7292 34.697C52.4974 33.3505 51.552 31.7176 50.8931 29.7982C50.2342 27.8787 49.9047 25.6728 49.9047 23.1805C49.9047 20.6881 50.2771 18.4822 51.022 16.5628C51.7955 14.6434 52.8411 13.0248 54.159 11.7069C55.4768 10.3605 57.0238 9.34349 58.7999 8.65593C60.5761 7.96838 62.4812 7.62461 64.5152 7.62461C65.7471 7.62461 66.8643 7.72487 67.867 7.92541C68.8697 8.0973 69.7435 8.29784 70.4883 8.52702C71.2332 8.7562 71.8491 8.99971 72.3361 9.25754C72.8231 9.51538 73.1669 9.70159 73.3674 9.81618L71.7775 14.2423C71.0899 13.8126 70.1016 13.4115 68.8124 13.0391C67.5519 12.638 66.1768 12.4375 64.6871 12.4375C63.3979 12.4375 62.1947 12.6667 61.0774 13.125C59.9602 13.5547 58.9861 14.2136 58.1553 15.1017C57.3532 15.9898 56.7229 17.1071 56.2646 18.4536C55.8062 19.8 55.577 21.3613 55.577 23.1375C55.577 24.7131 55.7489 26.1599 56.0927 27.4777C56.4651 28.7955 57.0238 29.9414 57.7686 30.9154C58.5134 31.8608 59.4588 32.6057 60.6048 33.15C61.7507 33.6656 63.1258 33.9235 64.7301 33.9235C66.6495 33.9235 68.2108 33.7373 69.414 33.3648C70.6172 32.9638 71.5483 32.5913 72.2072 32.2476L73.6682 36.6737C73.3245 36.9029 72.8518 37.1321 72.2502 37.3612C71.6772 37.5904 70.9897 37.8196 70.1875 38.0488C69.3854 38.2493 68.483 38.4069 67.4803 38.5215C66.4776 38.6647 65.4033 38.7363 64.2574 38.7363Z" fill="white"/>
<path d="M78.1672 38.0918V5.60492L83.3668 4.74548V15.8752C83.9398 15.6747 84.5987 15.5028 85.3435 15.3596C86.117 15.2163 86.8762 15.1447 87.6211 15.1447C89.4259 15.1447 90.9156 15.4025 92.0901 15.9182C93.2934 16.4052 94.2531 17.1071 94.9693 18.0238C95.6855 18.9119 96.1868 19.9862 96.4733 21.2467C96.7884 22.5072 96.946 23.911 96.946 25.458V38.0918H91.7464V26.2745C91.7464 25.0712 91.6604 24.0542 91.4885 23.2234C91.3453 22.364 91.0875 21.6765 90.715 21.1608C90.3713 20.6165 89.8986 20.2297 89.297 20.0005C88.6954 19.7427 87.9505 19.6138 87.0624 19.6138C86.3749 19.6138 85.673 19.6854 84.9568 19.8287C84.2406 19.9719 83.7106 20.1008 83.3668 20.2154V38.0918H78.1672Z" fill="white"/>
<path d="M108.421 38.0918H103.221V15.6174H108.421V38.0918ZM108.979 9.04268C108.979 10.0167 108.664 10.7902 108.034 11.3632C107.404 11.9361 106.659 12.2226 105.8 12.2226C104.911 12.2226 104.152 11.9361 103.522 11.3632C102.892 10.7902 102.577 10.0167 102.577 9.04268C102.577 8.04 102.892 7.25218 103.522 6.67922C104.152 6.10626 104.911 5.81978 105.8 5.81978C106.659 5.81978 107.404 6.10626 108.034 6.67922C108.664 7.25218 108.979 8.04 108.979 9.04268Z" fill="white"/>
<path d="M119.451 38.0918H114.252V15.6174H119.451V38.0918ZM120.01 9.04268C120.01 10.0167 119.695 10.7902 119.064 11.3632C118.434 11.9361 117.689 12.2226 116.83 12.2226C115.942 12.2226 115.183 11.9361 114.552 11.3632C113.922 10.7902 113.607 10.0167 113.607 9.04268C113.607 8.04 113.922 7.25218 114.552 6.67922C115.183 6.10626 115.942 5.81978 116.83 5.81978C117.689 5.81978 118.434 6.10626 119.064 6.67922C119.695 7.25218 120.01 8.04 120.01 9.04268Z" fill="white"/>
<path d="M141.812 19.27C141.239 19.8716 140.48 20.7167 139.535 21.8054C138.618 22.894 137.63 24.1115 136.57 25.458C135.51 26.7758 134.436 28.1652 133.347 29.6263C132.287 31.0587 131.327 32.4338 130.468 33.7516H142.07V38.0918H124.194V34.8689C124.824 33.7229 125.612 32.4768 126.557 31.1303C127.503 29.7838 128.477 28.4374 129.479 27.0909C130.482 25.7158 131.47 24.4123 132.445 23.1805C133.447 21.9486 134.335 20.8743 135.109 19.9576H124.753V15.6174H141.812V19.27Z" fill="white"/>
<path d="M164.873 37.4042C163.87 37.662 162.566 37.9199 160.962 38.1777C159.358 38.4642 157.596 38.6074 155.677 38.6074C153.872 38.6074 152.353 38.3496 151.122 37.8339C149.918 37.3183 148.944 36.6021 148.199 35.6853C147.483 34.7686 146.968 33.68 146.652 32.4195C146.337 31.1303 146.18 29.7265 146.18 28.2082V15.6174H151.379V27.3917C151.379 29.7982 151.723 31.517 152.411 32.5484C153.127 33.5797 154.359 34.0954 156.106 34.0954C156.737 34.0954 157.395 34.0667 158.083 34.0094C158.799 33.9521 159.329 33.8805 159.673 33.7946V15.6174H164.873V37.4042Z" fill="white"/>
<defs>
<clipPath id="clip0_92_649">
<rect width="40.0422" height="42.5" fill="white" transform="translate(0 0.75)"/>
</clipPath>
</defs>
</svg>
