<svg width="24" height="23" viewBox="0 0 24 23" fill="none" xmlns="http://www.w3.org/2000/svg">
<circle cx="12.041" cy="11.3638" r="11.3638" fill="white"/>
<path d="M11.6766 9.39232C10.3864 9.39232 9.33343 10.4452 9.33343 11.7355C9.33343 13.0257 10.3864 14.0786 11.6766 14.0786C12.9668 14.0786 14.0198 13.0257 14.0198 11.7355C14.0198 10.4452 12.9668 9.39232 11.6766 9.39232ZM18.7043 11.7355C18.7043 10.7652 18.7131 9.80365 18.6586 8.83509C18.6041 7.71009 18.3475 6.71166 17.5248 5.889C16.7004 5.06459 15.7037 4.8097 14.5787 4.75521C13.6084 4.70072 12.6469 4.70951 11.6784 4.70951C10.708 4.70951 9.74652 4.70072 8.77796 4.75521C7.65296 4.8097 6.65453 5.06634 5.83187 5.889C5.00746 6.71341 4.75257 7.71009 4.69808 8.83509C4.64359 9.80541 4.65238 10.7669 4.65238 11.7355C4.65238 12.704 4.64359 13.6673 4.69808 14.6359C4.75257 15.7609 5.00921 16.7593 5.83187 17.582C6.65628 18.4064 7.65296 18.6613 8.77796 18.7158C9.74828 18.7702 10.7098 18.7615 11.6784 18.7615C12.6487 18.7615 13.6102 18.7702 14.5787 18.7158C15.7037 18.6613 16.7022 18.4046 17.5248 17.582C18.3493 16.7576 18.6041 15.7609 18.6586 14.6359C18.7149 13.6673 18.7043 12.7058 18.7043 11.7355ZM11.6766 15.3408C9.68148 15.3408 8.07132 13.7306 8.07132 11.7355C8.07132 9.74037 9.68148 8.13021 11.6766 8.13021C13.6717 8.13021 15.2819 9.74037 15.2819 11.7355C15.2819 13.7306 13.6717 15.3408 11.6766 15.3408ZM15.4295 8.82455C14.9637 8.82455 14.5875 8.44837 14.5875 7.98255C14.5875 7.51673 14.9637 7.14056 15.4295 7.14056C15.8953 7.14056 16.2715 7.51673 16.2715 7.98255C16.2717 8.09316 16.25 8.20272 16.2077 8.30493C16.1654 8.40715 16.1034 8.50003 16.0252 8.57824C15.947 8.65646 15.8541 8.71847 15.7519 8.76074C15.6497 8.803 15.5401 8.82468 15.4295 8.82455Z" fill="black"/>
</svg>
