<svg width="23" height="23" viewBox="0 0 23 23" fill="none" xmlns="http://www.w3.org/2000/svg">
<path fill-rule="evenodd" clip-rule="evenodd" d="M11.504 0C17.7758 0 22.8677 5.09194 22.8677 11.3638C22.8677 17.6356 17.7758 22.7275 11.504 22.7275C5.23214 22.7275 0.140198 17.6356 0.140198 11.3638C0.140198 5.09194 5.23214 0 11.504 0ZM7.95114 17.7502V8.87572H5.00083V17.7502H7.95114ZM18.5878 17.7502V12.6611C18.5878 9.93512 17.1324 8.66704 15.1916 8.66704C13.6266 8.66704 12.9256 9.52772 12.5331 10.1322V8.87572H9.58357C9.62268 9.70834 9.58357 17.7502 9.58357 17.7502H12.5331V12.794C12.5331 12.5288 12.5522 12.2636 12.6303 12.074C12.8432 11.5442 13.3289 10.9954 14.1438 10.9954C15.2107 10.9954 15.6381 11.8095 15.6381 13.002V17.7502H18.5878ZM6.49591 4.59655C5.48649 4.59655 4.82699 5.26018 4.82699 6.12999C4.82699 6.98148 5.46643 7.66339 6.45685 7.66339H6.47589C7.50463 7.66339 8.14495 6.98148 8.14495 6.12999C8.12586 5.26018 7.50467 4.59655 6.49591 4.59655Z" fill="white"/>
</svg>
