<svg width="23" height="23" viewBox="0 0 23 23" fill="none" xmlns="http://www.w3.org/2000/svg">
<circle cx="11.4961" cy="11.3638" r="11.3638" fill="white"/>
<path d="M14.5824 6.37281C14.0698 5.78753 13.7872 5.03589 13.7874 4.25781H11.4699V13.5578C11.4521 14.0611 11.2396 14.5378 10.8773 14.8875C10.5149 15.2373 10.031 15.4327 9.52744 15.4328C8.46244 15.4328 7.57744 14.5628 7.57744 13.4828C7.57744 12.1928 8.82244 11.2253 10.1049 11.6228V9.25281C7.51744 8.90781 5.25244 10.9178 5.25244 13.4828C5.25244 15.9803 7.32244 17.7578 9.51994 17.7578C11.8749 17.7578 13.7874 15.8453 13.7874 13.4828V8.76531C14.7272 9.4402 15.8555 9.8023 17.0124 9.80031V7.48281C17.0124 7.48281 15.6024 7.55031 14.5824 6.37281Z" fill="black"/>
</svg>
