<svg width="25" height="24" viewBox="0 0 25 24" fill="none" xmlns="http://www.w3.org/2000/svg">
<path d="M12.7725 0C10.4179 0 8.11628 0.698202 6.15856 2.00631C4.20083 3.31443 2.67497 5.17369 1.77392 7.34901C0.87288 9.52432 0.637126 11.918 1.09647 14.2273C1.55582 16.5366 2.68964 18.6578 4.35455 20.3227C6.01946 21.9876 8.14069 23.1214 10.45 23.5808C12.7593 24.0401 15.1529 23.8044 17.3282 22.9033C19.5035 22.0023 21.3628 20.4764 22.6709 18.5187C23.979 16.561 24.6772 14.2593 24.6772 11.9048C24.6772 8.74742 23.423 5.7194 21.1904 3.48682C18.9578 1.25425 15.9298 0 12.7725 0ZM18.2077 9.2819C18.2128 9.39936 18.2153 9.51714 18.2153 9.63524C18.2223 10.6581 18.026 11.6722 17.6377 12.6185C17.2495 13.5649 16.6771 14.4247 15.9538 15.148C15.2305 15.8713 14.3707 16.4437 13.4244 16.8319C12.478 17.2201 11.4639 17.4165 10.4411 17.4095C8.95532 17.4113 7.5005 16.9851 6.25058 16.1819C6.46679 16.2073 6.68431 16.2201 6.90201 16.22C8.13297 16.2213 9.32855 15.8084 10.2963 15.0476C9.72607 15.0368 9.17349 14.8481 8.71584 14.5077C8.25819 14.1674 7.91837 13.6925 7.74392 13.1495C8.15472 13.2293 8.57838 13.2133 8.98201 13.1029C8.36402 12.9776 7.80833 12.6426 7.40912 12.1545C7.0099 11.6664 6.79172 11.0553 6.79153 10.4248C6.79153 10.4124 6.79153 10.401 6.79153 10.3895C7.17092 10.6009 7.59552 10.7182 8.02963 10.7314C7.45128 10.3449 7.0419 9.75264 6.88479 9.07501C6.72768 8.39739 6.83464 7.68536 7.18392 7.08381C7.86989 7.92839 8.72586 8.61923 9.69621 9.11146C10.6666 9.60369 11.7296 9.88631 12.8163 9.94095C12.68 9.35514 12.7407 8.74074 12.989 8.19291C13.2372 7.64509 13.6592 7.19439 14.1895 6.91064C14.7198 6.62688 15.3289 6.52589 15.9224 6.62331C16.5159 6.72074 17.0607 7.01113 17.4725 7.44952C18.0846 7.32772 18.6715 7.10226 19.2077 6.78286C19.0035 7.4157 18.5764 7.95282 18.0058 8.29428C18.5476 8.23016 19.0767 8.08505 19.5753 7.86381C19.2088 8.41281 18.7473 8.89205 18.2125 9.27905L18.2077 9.2819Z" fill="white"/>
</svg>
