<svg width="134" height="17" viewBox="0 0 134 17" fill="none" xmlns="http://www.w3.org/2000/svg">
<path fill-rule="evenodd" clip-rule="evenodd" d="M40.9682 5.98648H39.3399V11.9756H37.9485V5.98648H36.4545V4.82724H37.9485V3.93966C37.9485 2.26387 38.6754 0.998851 40.5677 0.998851C40.8619 0.992149 41.1556 1.02737 41.4399 1.10347L41.2793 2.32426C41.0536 2.25611 40.8192 2.22126 40.5835 2.22081C39.5321 2.22081 39.3399 3.06343 39.3399 3.93951V4.8271H40.9682V5.98648Z" fill="#F6B220"/>
<path fill-rule="evenodd" clip-rule="evenodd" d="M35.9566 5.98923H37.9508V4.99121H35.9566V5.98923Z" fill="#F6B220"/>
<path fill-rule="evenodd" clip-rule="evenodd" d="M3.76272 4.49098C4.70666 4.49098 5.53066 4.92036 5.96535 5.94879C6.19146 5.5045 6.53737 5.13245 6.96389 4.8748C7.39041 4.61715 7.88049 4.48419 8.37863 4.49098C10.2053 4.49098 11.0293 5.82963 11.0293 7.45303V11.9756H9.62133V7.93174C9.62133 6.75024 9.2746 5.70405 8.04804 5.70405C6.75998 5.70405 6.25072 6.90215 6.25072 8.0384V11.9756H4.84055V7.6419C4.84055 6.50273 4.46446 5.70405 3.34461 5.70405C2.30995 5.70405 1.52854 6.65726 1.52854 8.10009V11.9756H0.122873V6.25654C0.122873 5.87095 0.104119 5.16801 0.0615234 4.6893H1.39479C1.42387 5.06005 1.45294 5.58241 1.45294 5.88739H1.4983C1.70336 5.46277 2.02543 5.10566 2.42655 4.85817C2.82767 4.61069 3.29112 4.48313 3.76228 4.49054" fill="#60D0E4"/>
<path fill-rule="evenodd" clip-rule="evenodd" d="M13.5226 11.9772H15.0182V4.99121H13.5226V11.9772Z" fill="#A3D65B"/>
<path fill-rule="evenodd" clip-rule="evenodd" d="M18.3631 4.68899C18.3921 5.05974 18.4253 5.58211 18.4253 5.88709H18.4689C18.8178 5.10136 19.7737 4.49023 20.8057 4.49023C22.659 4.49023 23.4938 5.82888 23.4938 7.45229V11.9753H22.0641V7.93158C22.0641 6.74993 21.7453 5.70375 20.4243 5.70375C19.3032 5.70375 18.4981 6.65695 18.4981 8.09979V11.9753H17.0691V6.25696C17.0691 5.87123 17.0555 5.16829 17.0122 4.68958L18.3631 4.68899Z" fill="#F6B220"/>
<path fill-rule="evenodd" clip-rule="evenodd" d="M54.811 6.48202C54.6167 6.20352 54.3569 5.97715 54.0546 5.82287C53.7523 5.66859 53.4166 5.59114 53.0773 5.59734C52.3997 5.59734 51.6962 5.85183 51.6962 6.52741C51.6962 7.12573 52.2617 7.34952 53.3931 7.5896C54.8104 7.88818 55.8971 8.44386 55.8971 9.68692C55.8971 11.3646 54.4323 11.9762 52.9228 11.9762C51.7888 11.9762 50.6236 11.559 49.9146 10.7049L50.9708 9.84959C51.2026 10.157 51.5026 10.4063 51.8472 10.5778C52.1917 10.7493 52.5714 10.8384 52.9562 10.8379C53.6902 10.8379 54.4323 10.5834 54.4323 9.80783C54.4323 9.14549 53.7546 8.90701 52.4801 8.62196C51.4915 8.39934 50.3067 7.99425 50.3067 6.66055C50.3067 5.13274 51.7103 4.49121 53.127 4.49121C54.1775 4.49121 55.2977 4.8963 55.833 5.65845L54.811 6.48202Z" fill="#F5671A"/>
<path fill-rule="evenodd" clip-rule="evenodd" d="M57.3935 11.9772H58.8889V4.99121H57.3935V11.9772Z" fill="#60D0E4"/>
<path fill-rule="evenodd" clip-rule="evenodd" d="M70.2131 4.68899C70.24 5.05974 70.2724 5.58211 70.2724 5.88709H70.3185C70.6664 5.10136 71.6227 4.49023 72.6572 4.49023C74.5035 4.49023 75.3411 5.82888 75.3411 7.45229V11.9753H73.9153V7.93158C73.9153 6.74993 73.5965 5.70375 72.2763 5.70375C71.1529 5.70375 70.3482 6.65695 70.3482 8.09979V11.9753H68.9225V6.25696C68.9225 5.87123 68.906 5.16829 68.8602 4.68958L70.2131 4.68899Z" fill="#A3D65B"/>
<path fill-rule="evenodd" clip-rule="evenodd" d="M30.4718 5.94078H26.9585V9.62206C26.9585 10.4689 27.2771 10.8122 28.0215 10.8122C28.2922 10.8122 28.6389 10.9341 28.8927 10.8122L28.9096 11.8579C28.5009 11.9306 28.0869 11.9695 27.6718 11.9743C26.2619 11.9752 25.4865 11.2305 25.4865 9.77077V2.49463H26.9585V4.79551H30.4718V5.94078Z" fill="#F5671A"/>
<path fill-rule="evenodd" clip-rule="evenodd" d="M32.8635 10.7104H32.8937L34.9135 4.98975H36.4558L32.91 13.9989C32.4326 15.2135 31.8151 15.9673 30.3804 15.9673C30.0581 15.9668 29.7369 15.9306 29.4226 15.8593L29.5626 14.7048C29.796 14.7814 30.0569 14.7048 30.2872 14.7048C31.0445 14.7048 31.3382 14.2739 31.6456 13.4928L32.1066 12.2781L28.9776 4.99033H30.5969L32.8635 10.7104Z" fill="#60D0E4"/>
<path fill-rule="evenodd" clip-rule="evenodd" d="M47.0695 12.2788C47.0404 11.9082 47.0072 11.3857 47.0072 11.0808H46.9748C46.6128 11.848 45.6699 12.4759 44.6245 12.4759C42.7738 12.4759 41.9391 11.1395 41.9391 9.51308V4.99121H43.3627V9.02084C43.3627 10.2149 43.6843 11.2625 45.0055 11.2625C46.1428 11.2625 46.9316 10.3078 46.9316 8.86486V4.99121H48.3606V10.7113C48.3606 11.0943 48.377 11.8 48.4203 12.2788H47.0695Z" fill="#A3D65B"/>
<path fill-rule="evenodd" clip-rule="evenodd" d="M24.4899 5.98923H25.4869V4.99121H24.4899V5.98923Z" fill="#F5671A"/>
<path fill-rule="evenodd" clip-rule="evenodd" d="M29.4755 15.9667H30.4725L30.3754 14.4697H29.4755V15.9667Z" fill="#60D0E4"/>
<path fill-rule="evenodd" clip-rule="evenodd" d="M28.4783 11.9746H27.4811L27.7574 10.9766H28.4779L28.4783 11.9746Z" fill="#F5671A"/>
<path fill-rule="evenodd" clip-rule="evenodd" d="M63.8706 5.6586C62.4497 5.6586 61.8682 6.86979 61.8682 8.21833C61.8682 9.56688 62.4497 10.7938 63.8706 10.7938C65.3025 10.7938 65.8836 9.56658 65.8836 8.21833C65.8836 6.87008 65.302 5.6586 63.8706 5.6586ZM63.8706 11.9759C61.83 11.9759 60.385 10.4062 60.385 8.21833C60.385 6.03299 61.8301 4.49121 63.8706 4.49121C65.9112 4.49121 67.3642 6.03357 67.3642 8.21833C67.3642 10.4063 65.9104 11.9759 63.8706 11.9759Z" fill="#F6B220"/>
<path fill-rule="evenodd" clip-rule="evenodd" d="M15.5165 1.74925C15.5169 1.50257 15.4443 1.26129 15.3078 1.05591C15.1713 0.850536 14.9769 0.690288 14.7494 0.595428C14.5219 0.500568 14.2714 0.475355 14.0296 0.522977C13.7877 0.570598 13.5654 0.688916 13.3908 0.862972C13.2161 1.03703 13.0969 1.25901 13.0483 1.50084C12.9997 1.74268 13.0238 1.99351 13.1176 2.22164C13.2114 2.44976 13.3707 2.64493 13.5753 2.78247C13.7799 2.92001 14.0206 2.99374 14.2671 2.99434C14.5974 2.99393 14.9141 2.86278 15.1482 2.62953C15.3823 2.39627 15.5146 2.07984 15.5165 1.74925Z" fill="#A3D65B"/>
<path fill-rule="evenodd" clip-rule="evenodd" d="M59.3874 1.74926C59.3879 1.50244 59.3152 1.26104 59.1785 1.0556C59.0419 0.850154 58.8474 0.689907 58.6197 0.595136C58.392 0.500365 58.1413 0.475329 57.8994 0.523198C57.6575 0.571067 57.4352 0.689688 57.2607 0.864049C57.0861 1.03841 56.9672 1.26067 56.9189 1.50271C56.8706 1.74475 56.8952 1.99569 56.9894 2.22376C57.0837 2.45183 57.2435 2.64679 57.4485 2.78396C57.6535 2.92113 57.8945 2.99435 58.1411 2.99435C58.471 2.99331 58.787 2.86188 59.0204 2.62867C59.2539 2.39546 59.3858 2.07937 59.3874 1.74926Z" fill="#60D0E4"/>
<path fill-rule="evenodd" clip-rule="evenodd" d="M88.523 6.54617C88.3445 6.27095 88.0995 6.0453 87.8106 5.89014C87.5218 5.73498 87.1984 5.65533 86.8706 5.65859C86.225 5.65859 85.5494 5.91249 85.5494 6.59273C85.5494 7.19018 86.0892 7.41964 87.1691 7.65856C88.523 7.96005 89.5593 8.51529 89.5593 9.76315C89.5593 11.4466 88.162 12.063 86.7213 12.063C85.6388 12.063 84.5261 11.641 83.8537 10.7868L84.8548 9.9283C85.0699 10.2313 85.3536 10.4789 85.6828 10.6509C86.012 10.8229 86.3772 10.9143 86.7485 10.9177C87.4568 10.9177 88.162 10.6653 88.162 9.88319C88.162 9.22056 87.5164 8.98295 86.3012 8.69383C85.3542 8.47252 84.231 8.06656 84.231 6.72514C84.231 5.19355 85.5659 4.54736 86.9144 4.54736C87.9208 4.54736 88.9898 4.95478 89.4973 5.71897L88.523 6.54617Z" fill="#60D0E4"/>
<path fill-rule="evenodd" clip-rule="evenodd" d="M95.3326 5.89799H93.4416V9.61143C93.4416 10.468 93.7399 10.8156 94.4456 10.8156C94.7311 10.8138 95.0131 10.7518 95.2731 10.6338L95.3167 11.7933C94.9295 11.9236 94.5234 11.9892 94.1149 11.9874C92.7799 11.9874 92.0447 11.2353 92.0447 9.76218V5.89799H90.6742V4.74108H92.0443V2.69629H93.4416V4.74108H95.3326V5.89799Z" fill="#60D0E4"/>
<path fill-rule="evenodd" clip-rule="evenodd" d="M101.917 11.865C101.889 11.5078 101.86 10.9946 101.86 10.6973H101.827C101.469 11.4468 100.535 12.063 99.5018 12.063C97.6677 12.063 96.8429 10.7535 96.8429 9.16162V4.74219H98.253V8.68247C98.253 9.85277 98.5678 10.8765 99.8756 10.8765C101.002 10.8765 101.78 9.94109 101.78 8.53042V4.74219H103.194V10.3348C103.194 10.7095 103.21 11.4007 103.253 11.865H101.917Z" fill="#60D0E4"/>
<path fill-rule="evenodd" clip-rule="evenodd" d="M109.005 10.8757C110.443 10.8757 111.407 9.67134 111.407 8.30562C111.407 6.937 110.443 5.71897 109.005 5.71897C107.459 5.71897 106.648 6.95053 106.648 8.28933C106.648 9.62812 107.459 10.8757 109.005 10.8757ZM108.764 12.0623C106.572 12.0623 105.175 10.3788 105.175 8.28918C105.175 6.18474 106.615 4.54722 108.748 4.54722C109.241 4.54031 109.728 4.65127 110.17 4.87088C110.612 5.09049 110.995 5.41242 111.287 5.80991H111.316V0.505371H112.726V11.8642H111.363V10.7386H111.331C110.791 11.5971 109.768 12.0627 108.764 12.0627" fill="#60D0E4"/>
<path fill-rule="evenodd" clip-rule="evenodd" d="M115.182 11.863H116.592V4.74021H115.182V11.863ZM115.887 3.07141C115.644 3.07508 115.41 2.98251 115.235 2.81389C115.06 2.64526 114.959 2.41428 114.953 2.17132C114.96 1.92619 115.061 1.69315 115.236 1.52193C115.412 1.35072 115.647 1.25488 115.892 1.25488C116.137 1.25488 116.372 1.35072 116.548 1.52193C116.723 1.69315 116.825 1.92619 116.831 2.17132C116.828 2.29253 116.802 2.41202 116.753 2.52292C116.704 2.63382 116.633 2.73396 116.546 2.81758C116.458 2.90121 116.354 2.96668 116.241 3.01024C116.128 3.05379 116.008 3.07458 115.887 3.07141Z" fill="#60D0E4"/>
<path fill-rule="evenodd" clip-rule="evenodd" d="M122.367 5.71897C120.85 5.71897 119.993 6.937 119.993 8.28932C119.993 9.64165 120.851 10.8757 122.367 10.8757C123.897 10.8757 124.735 9.64296 124.735 8.28932C124.735 6.93569 123.898 5.71897 122.367 5.71897ZM122.367 12.063C120.188 12.063 118.533 10.484 118.533 8.28991C118.533 6.09583 120.189 4.54736 122.367 4.54736C124.543 4.54736 126.208 6.09379 126.208 8.28932C126.208 10.4849 124.543 12.0624 122.367 12.0624" fill="#60D0E4"/>
<path fill-rule="evenodd" clip-rule="evenodd" d="M132.025 6.54617C131.847 6.27101 131.602 6.0454 131.313 5.89025C131.024 5.73509 130.701 5.65541 130.373 5.65859C129.727 5.65859 129.052 5.91249 129.052 6.59273C129.052 7.19018 129.594 7.41964 130.674 7.65856C132.026 7.96005 133.062 8.51529 133.062 9.76315C133.062 11.4466 131.664 12.063 130.223 12.063C129.141 12.063 128.031 11.641 127.356 10.7868L128.362 9.9283C128.576 10.2316 128.858 10.4796 129.187 10.6517C129.515 10.8237 129.88 10.915 130.251 10.9177C130.959 10.9177 131.664 10.6653 131.664 9.88319C131.664 9.22056 131.016 8.98295 129.803 8.69383C128.856 8.47252 127.728 8.06656 127.728 6.72514C127.728 5.19355 129.065 4.54736 130.419 4.54736C131.422 4.54736 132.492 4.95478 132.999 5.71897L132.025 6.54617Z" fill="#60D0E4"/>
<path fill-rule="evenodd" clip-rule="evenodd" d="M79.8284 16.9652C79.5535 16.9652 79.3298 16.7886 79.3298 16.575V0.391701C79.3298 0.177953 79.5534 0 79.8284 0C80.1035 0 80.3271 0.177953 80.3271 0.391701V16.575C80.3271 16.7884 80.1035 16.9652 79.8284 16.9652Z" fill="#ECE4E4"/>
</svg>
